# xmcd CD database file
#
# Track frame offsets:
#	150
#	22060
#	44978
#	68187
#	89212
#	110304
#	133218
#	153879
#	172642
#	192148
#	211153
#	231323
#
# Disc length: 3367 seconds
#
# Revision: 0
# Processed by: cddbd v1.5.1PL0 Copyright (c) Steve Scherf et al.
# Submitted via: CDex 1.51
#
DISCID=a90d250c
DTITLE=Grupo Galé - Internacional
DYEAR=1998
DGENRE=Salsa
TTITLE0=No la descuides
TTITLE1=Me vuelves loco
TTITLE2=Un canto a mi tierra
TTITLE3=La crítica
TTITLE4=Padre nuestro
TTITLE5=Esta soledad
TTITLE6=La aguja
TTITLE7=Cualquiera puede
TTITLE8=Jugue al amor
TTITLE9=Más que un tatuaje
TTITLE10=Qué será de ti
TTITLE11=Propuesta
EXTD=YEAR: 1998
EXTT0=
EXTT1=
EXTT2=
EXTT3=
EXTT4=
EXTT5=
EXTT6=
EXTT7=
EXTT8=
EXTT9=
EXTT10=
EXTT11=
PLAYORDER=
